<?xml version="1.0" encoding="UTF-8"?>
<!DOCTYPE svg PUBLIC "-//W3C//DTD SVG 1.1//EN" "http://www.w3.org/Graphics/SVG/1.1/DTD/svg11.dtd">

<svg xmlns="http://www.w3.org/2000/svg" xml:space="preserve" width="841mm" height="594mm"
    style="shape-rendering:geometricPrecision; text-rendering:geometricPrecision; image-rendering:optimizeQuality; fill-rule:evenodd; clip-rule:evenodd"
    viewBox="0 0 841 594">
    <defs>
        <style type="text/css">
            <![CDATA[
            .str0 {
                stroke: black;
                stroke-width: 0.3528
            }

            .str1 {
                stroke: black;
                stroke-width: 0.3528;
                stroke-dasharray: 1 1
            }

            .fil0 {
                fill: none
            }
            ]]>
        </style>
    </defs>
    <rect class="fil0 str0" x="0" y="0" width="45.1" height="250" />
    <rect class="fil0 str0" x="0" y="250" width="45.1" height="59" />
    <rect class="fil0 str0" x="0" y="309" width="45.1" height="90" />
    <rect class="fil0 str0" x="45.1" y="0" width="59" height="250" />
    <rect class="fil0 str0" x="45.1" y="250" width="59" height="59" />
    <rect class="fil0 str0" x="45.1" y="309" width="59" height="90" />
    <rect class="fil0 str0" x="104.1" y="0" width="59" height="250" />
    <rect class="fil0 str0" x="104.1" y="250" width="59" height="59" />
    <rect class="fil0 str0" x="104.1" y="309" width="59" height="90" />
    <rect class="fil0 str0" x="163.1" y="0" width="205" height="250" />
    <rect class="fil0 str0" x="163.1" y="250" width="205" height="59" />
    <rect class="fil0 str0" x="163.1" y="309" width="205" height="90" />
    <rect class="fil0 str0" x="368.1" y="0" width="59" height="250" />
    <rect class="fil0 str0" x="368.1" y="250" width="59" height="59" />
    <rect class="fil0 str0" x="368.1" y="309" width="59" height="90" />
    <rect class="fil0 str0" x="427.1" y="0" width="59" height="250" />
    <rect class="fil0 str0" x="427.1" y="250" width="59" height="59" />
    <rect class="fil0 str0" x="427.1" y="309" width="59" height="90" />
    <rect class="fil0 str0" x="486.1" y="0" width="205" height="250" />
    <rect class="fil0 str0" x="486.1" y="250" width="205" height="59" />
    <rect class="fil0 str0" x="486.1" y="309" width="205" height="90" />
    <line class="fil0 str1" x1="45.1" y1="309" x2="0" y2="354.1" />
    <line class="fil0 str1" x1="45.1" y1="309" x2="104.1" y2="250" />
    <line class="fil0 str1" x1="45.1" y1="309" x2="104.1" y2="368" />
    <line class="fil0 str1" x1="163.1" y1="309" x2="104.1" y2="250" />
    <line class="fil0 str1" x1="163.1" y1="309" x2="104.1" y2="368" />
    <line class="fil0 str1" x1="163.1" y1="309" x2="253.1" y2="399" />
    <line class="fil0 str1" x1="368.1" y1="309" x2="278.1" y2="399" />
    <line class="fil0 str1" x1="368.1" y1="309" x2="427.1" y2="250" />
    <line class="fil0 str1" x1="368.1" y1="309" x2="427.1" y2="368" />
    <line class="fil0 str1" x1="486.1" y1="309" x2="427.1" y2="250" />
    <line class="fil0 str1" x1="486.1" y1="309" x2="427.1" y2="368" />
    <line class="fil0 str1" x1="486.1" y1="309" x2="576.1" y2="399" />
    <line class="fil0 str1" x1="691.1" y1="309" x2="601.1" y2="399" />
</svg>